<svg width="88" height="77" viewBox="0 0 88 77" fill="none" xmlns="http://www.w3.org/2000/svg">
    <mask id="mask0_10_1921" style="mask-type:luminance" maskUnits="userSpaceOnUse" x="0" y="0"
        width="88" height="77">
        <path d="M0.906219 0.359375H87.6666V76.2188H0.906219V0.359375Z" fill="white" />
    </mask>
    <g mask="url(#mask0_10_1921)">
        <path
            d="M0.932281 0.359375H7.27082V76.4375H0.932281V0.359375ZM83.349 0.359375H87.5729V76.4375H83.349V0.359375ZM11.5 0.359375H17.8385V48.9635H11.5V0.359375ZM22.0625 0.359375H26.2917V48.9635H22.0625V0.359375ZM30.5156 0.359375H34.7448V48.9635H30.5156V0.359375ZM41.0833 0.359375H47.4219V48.9635H41.0833V0.359375ZM53.7604 0.359375H57.9896V48.9635H53.7604V0.359375ZM62.2135 0.359375H66.4427V48.9635H62.2135V0.359375ZM70.6667 0.359375H79.1198V48.9635H70.6667V0.359375ZM11.5208 72.1979V56.8594H15.8646C17.4687 56.8594 18.6823 57.2188 19.5156 57.9323C20.3489 58.6406 20.7656 59.6875 20.7656 61.0625C20.7656 61.8438 20.5937 62.5104 20.25 63.0729C19.9062 63.6354 19.4375 64.0469 18.8385 64.3073C19.526 64.5052 20.0521 64.8958 20.4271 65.4896C20.8021 66.0833 20.9844 66.8125 20.9844 67.6875C20.9844 69.1771 20.5781 70.3021 19.7604 71.0573C18.9427 71.8125 17.7552 72.1927 16.2083 72.1927H11.5208V72.1979ZM14.6042 63.276H15.8385C17.0521 63.276 17.6614 62.6458 17.6614 61.3906C17.6614 60.6927 17.5208 60.1979 17.2396 59.8958C16.9583 59.5885 16.5 59.4427 15.8698 59.4427H14.6042V63.276ZM14.6042 65.5313V69.6302H16.2031C16.7604 69.6302 17.1823 69.4583 17.4687 69.1146C17.7552 68.7708 17.901 68.2813 17.901 67.651C17.901 66.2708 17.401 65.5677 16.401 65.5313H14.6042ZM32.8542 65.8385C32.8542 67.849 32.375 69.4063 31.4271 70.5156C30.4792 71.625 29.1667 72.1823 27.4792 72.1823C25.7969 72.1823 24.4792 71.6302 23.5208 70.5313C22.5625 69.4323 22.0781 67.8958 22.0625 65.9167V63.3542C22.0625 61.3021 22.5364 59.6979 23.4896 58.5417C24.4427 57.3906 25.7604 56.8125 27.4531 56.8125C29.1198 56.8125 30.4323 57.375 31.3906 58.5156C32.3489 59.6458 32.8333 61.2396 32.8489 63.2865L32.8542 65.8385ZM29.8229 63.3333C29.8229 61.9844 29.6302 60.9844 29.2448 60.3229C28.8646 59.6667 28.2656 59.3385 27.4583 59.3385C26.6562 59.3385 26.0677 59.651 25.6823 60.2865C25.2969 60.9167 25.0989 61.8802 25.0833 63.1771V65.8385C25.0833 67.1458 25.2812 68.1094 25.6719 68.7292C26.0625 69.349 26.6667 69.6615 27.4792 69.6615C28.2656 69.6615 28.8542 69.3594 29.2344 68.7448C29.6198 68.1458 29.8177 67.2031 29.8229 65.9271V63.3333ZM79.1198 65.8802C79.1198 67.8906 78.6458 69.4479 77.6979 70.5573C76.75 71.6667 75.4323 72.2188 73.7448 72.2188C72.0677 72.2188 70.75 71.6719 69.7917 70.5729C68.8333 69.4688 68.3437 67.9375 68.3281 65.9531V63.3958C68.3281 61.3438 68.8073 59.7396 69.7552 58.5833C70.7083 57.4323 72.0312 56.8542 73.724 56.8542C75.3906 56.8542 76.7031 57.4167 77.6562 58.5521C78.6198 59.6875 79.099 61.276 79.1146 63.3281L79.1198 65.8802ZM76.0885 63.375C76.0885 62.026 75.901 61.026 75.5156 60.3646C75.1302 59.7083 74.5365 59.3802 73.7292 59.3802C72.9271 59.3802 72.3333 59.6979 71.9531 60.3281C71.5677 60.9635 71.3698 61.9271 71.3542 63.2188V65.8802C71.3542 67.1875 71.5469 68.151 71.9375 68.7708C72.3333 69.3906 72.9323 69.7031 73.75 69.7031C74.5365 69.7031 75.1198 69.401 75.5052 68.7865C75.8906 68.1875 76.0833 67.2448 76.0937 65.974L76.0885 63.375ZM37.8385 69.6354H43.276V72.2031H34.7448V56.8698H37.8385V69.6354ZM53.2292 65.5677H48.4062V69.6354H54.1146V72.2031H45.3073V56.8698H54.0937V59.4479H48.4062V63.0729H53.2292V65.5677ZM67 59.4531H63.2083V72.2083H60.1042V59.4531H56.3698V56.8698H67V59.4531Z"
            fill="#5C484D" />
    </g>
</svg>
    