<svg width="995" height="267" viewBox="0 0 995 267" fill="none" xmlns="http://www.w3.org/2000/svg">
    <path fill-rule="evenodd" clip-rule="evenodd"
        d="M973.074 111.982C973.074 89.9406 965.123 72.0862 951.844 72.0862C938.566 72.0862 930.615 89.8996 930.615 111.982V218.329C930.615 240.37 938.566 258.224 951.844 258.224C965.123 258.224 973.074 240.37 973.074 218.329V111.982ZM909.344 111.982C909.344 88.5862 927.131 69.4597 951.803 69.4597C976.475 69.4597 994.262 88.5862 994.262 111.982V218.329C994.262 241.724 976.475 260.892 951.803 260.892C927.09 260.892 909.344 241.724 909.344 218.329V111.982Z"
        fill="#2B443F" />
    <path fill-rule="evenodd" clip-rule="evenodd"
        d="M490.697 260.893L548.32 77.4224H513.279C503.689 77.4224 496.025 92.8553 496.025 111.982H493.32V74.7545H571.394L513.771 258.225H548.812C558.402 258.225 566.107 242.792 566.107 223.624H568.771V260.893H490.697Z"
        fill="#2B443F" />
    <path fill-rule="evenodd" clip-rule="evenodd"
        d="M352.378 77.4224V74.7545H320.533L291.312 216.236L257.296 74.7545H225.984V77.4224C232.582 77.4224 237.951 82.7993 237.951 89.4075V250.262L237.91 250.303V246.322C237.91 252.848 232.664 258.143 226.107 258.225C226.066 258.225 226.025 258.266 225.943 258.266V260.934H251.189V258.266H240.533V95.5232L280.41 260.934H284.632L320.451 87.8068V247.922C320.369 253.628 315.779 258.225 310.082 258.266H309.796V260.934H352.296V258.266H341.681V77.4224H352.378Z"
        fill="#2B443F" />
    <path fill-rule="evenodd" clip-rule="evenodd"
        d="M736.762 77.4224C746.311 77.4224 754.016 92.8553 754.016 111.982H756.68V74.7545H679.672V77.4224C685.533 77.4224 690.246 82.1836 690.246 88.053V247.594C690.246 253.463 685.492 258.225 679.672 258.225V260.893H756.68V223.624H754.016C754.016 242.792 746.311 258.225 736.762 258.225H711.516V169.158H727.459C733.32 169.158 738.074 178.721 738.074 190.419H740.738V145.228H738.074C738.074 156.926 733.279 166.49 727.459 166.49H711.516V77.4224H736.762Z"
        fill="#2B443F" />
    <path fill-rule="evenodd" clip-rule="evenodd"
        d="M394.056 203.717L412.09 119.165L430.902 203.717H394.056ZM462.09 247.594L464.426 258.224L423.566 72.0858H419.303L382.253 247.594C379.835 253.504 373.114 258.224 367.294 258.224V260.892H392.786V258.224H382.704L393.606 206.344H431.598L442.746 258.224H432.131V260.892H475.164V258.224C469.18 258.224 463.402 253.75 462.09 247.594Z"
        fill="#2B443F" />
    <path fill-rule="evenodd" clip-rule="evenodd"
        d="M818.033 165.176V74.7542H828.648C843.238 74.7542 855.205 92.6087 855.205 114.65V125.28C855.205 147.321 843.238 165.176 828.648 165.176H818.033ZM887.049 243.612C887.049 248.661 884.631 252.683 881.721 252.683C878.812 252.683 876.394 248.661 876.394 243.612V207.739C876.394 188.079 862.582 171.333 841.353 166.53C862.582 161.728 876.394 144.982 876.394 125.28V114.65C876.394 91.2542 857.254 72.1273 828.607 72.1273H786.107V74.7952C792.008 74.7952 796.721 79.556 796.721 85.4254V85.3848V245.049V244.967C796.721 250.836 792.008 255.556 786.148 255.597H786.066V258.265H828.566V255.597H817.951V167.844H828.566C843.156 167.844 855.123 185.657 855.123 207.739V243.612C855.123 253.176 862.828 260.933 872.377 260.933C881.967 260.933 889.672 253.176 889.672 243.612H887.049Z"
        fill="#2B443F" />
    <path fill-rule="evenodd" clip-rule="evenodd"
        d="M647.295 77.4224V74.7545H604.795V77.4224C610.656 77.4224 615.369 82.1836 615.369 88.053V247.594C615.369 253.463 610.615 258.225 604.795 258.225V260.893H647.295V258.225H636.68V77.3814H647.295V77.4224Z"
        fill="#2B443F" />
    <path fill-rule="evenodd" clip-rule="evenodd"
        d="M273.731 38.963C273.731 39.1683 273.731 39.3321 273.69 39.4963C273.649 39.6605 273.608 39.784 273.526 39.9071C273.444 40.0303 273.362 40.1124 273.28 40.1534C273.198 40.1945 273.075 40.2355 272.993 40.2355H258.731C258.444 40.2355 258.157 40.1124 257.87 39.9071C257.583 39.7019 257.419 39.2915 257.419 38.7577V11.2167C257.419 10.6421 257.583 10.2726 257.87 10.0674C258.157 9.8622 258.444 9.73902 258.731 9.73902H272.788C272.911 9.73902 272.993 9.78015 273.116 9.8212C273.198 9.86224 273.28 9.94429 273.362 10.0674C273.403 10.1906 273.444 10.3137 273.485 10.4779C273.526 10.6421 273.526 10.8472 273.526 11.0525C273.526 11.2577 273.526 11.4219 273.485 11.5861C273.444 11.7503 273.403 11.8734 273.362 11.9965C273.28 12.0786 273.198 12.1607 273.116 12.2428C273.034 12.2838 272.911 12.3248 272.788 12.3248H260.288V23.0786H271.067C271.19 23.0786 271.313 23.1197 271.395 23.1608C271.477 23.2018 271.559 23.2838 271.641 23.407C271.681 23.5301 271.763 23.6533 271.763 23.8175C271.804 23.9816 271.804 24.1868 271.804 24.392C271.804 24.5972 271.804 24.7615 271.763 24.9256C271.722 25.0898 271.681 25.2129 271.641 25.295C271.559 25.3771 271.518 25.4593 271.395 25.5003C271.313 25.5413 271.19 25.5823 271.067 25.5823H260.288V37.7726H272.993C273.116 37.7726 273.198 37.8136 273.28 37.8547C273.362 37.8957 273.444 37.9778 273.526 38.101C273.608 38.2241 273.649 38.3473 273.69 38.5115C273.731 38.5525 273.731 38.7167 273.731 38.963ZM399.96 39.743C399.96 39.8251 399.919 39.9071 399.878 39.9892C399.837 40.0713 399.755 40.1534 399.632 40.1534C399.509 40.1945 399.386 40.2351 399.181 40.2761C398.977 40.3172 398.772 40.3176 398.485 40.3176C398.239 40.3176 397.993 40.3172 397.829 40.2761C397.665 40.2351 397.501 40.1945 397.378 40.1534C397.296 40.1124 397.214 40.0303 397.132 39.9892C397.091 39.9071 397.05 39.8251 397.05 39.743V12.2017H397.009L385.042 39.9071C385.001 39.9892 384.96 40.0303 384.919 40.0713C384.837 40.1124 384.755 40.1945 384.673 40.2355C384.55 40.2765 384.427 40.3176 384.263 40.3176C384.1 40.3586 383.936 40.3586 383.731 40.3586C383.526 40.3586 383.321 40.3586 383.157 40.3176C382.993 40.2765 382.87 40.2765 382.788 40.2355C382.665 40.1945 382.583 40.1534 382.542 40.0713C382.46 40.0303 382.46 39.9482 382.419 39.9071L371.067 12.2017H371.026V39.743C371.026 39.8251 370.985 39.9071 370.944 39.9892C370.903 40.0713 370.821 40.1534 370.698 40.1534C370.575 40.1945 370.452 40.2351 370.247 40.2761C370.042 40.3172 369.837 40.3176 369.509 40.3176C369.263 40.3176 369.018 40.3172 368.854 40.2761C368.649 40.2351 368.526 40.1945 368.403 40.1534C368.28 40.1124 368.198 40.0303 368.157 39.9892C368.116 39.9071 368.116 39.8251 368.116 39.743V11.1756C368.116 10.601 368.28 10.2316 368.567 10.0263C368.854 9.82111 369.141 9.69806 369.427 9.69806H370.985C371.395 9.69806 371.722 9.73911 372.009 9.8212C372.296 9.90328 372.583 10.0264 372.788 10.1906C372.993 10.3547 373.198 10.56 373.362 10.8062C373.526 11.0525 373.649 11.2988 373.772 11.5861L383.813 35.8435H383.936L394.386 11.6681C394.55 11.2987 394.714 10.9705 394.878 10.7242C395.042 10.4779 395.247 10.2727 395.452 10.1085C395.657 9.94433 395.862 9.82116 396.108 9.78011C396.313 9.69802 396.6 9.69806 396.845 9.69806H398.567C398.731 9.69806 398.854 9.73907 399.018 9.78011C399.181 9.82116 399.304 9.9032 399.427 10.0263C399.55 10.1495 399.673 10.2727 399.755 10.4779C399.837 10.6421 399.878 10.8883 399.878 11.1756V39.743H399.96ZM513.606 18.4406C513.606 19.8772 513.361 21.1495 512.91 22.3398C512.418 23.5301 511.762 24.5563 510.861 25.3772C509.959 26.2391 508.852 26.8957 507.582 27.3472C506.311 27.8398 504.754 28.0451 502.91 28.0451H498.934V39.7019C498.934 39.784 498.893 39.8661 498.852 39.9482C498.811 40.0303 498.729 40.1124 498.606 40.1534C498.484 40.1945 498.361 40.2351 498.156 40.2761C497.951 40.3172 497.746 40.3176 497.459 40.3176C497.213 40.3176 496.967 40.3172 496.762 40.2761C496.598 40.2351 496.434 40.1945 496.311 40.1534C496.188 40.1124 496.147 40.0303 496.066 39.9892C496.025 39.9071 495.984 39.8251 495.984 39.743V11.1756C495.984 10.601 496.147 10.2316 496.434 10.0263C496.721 9.82111 497.008 9.69806 497.295 9.69806H503.484C504.098 9.69806 504.713 9.73907 505.287 9.78011C505.861 9.82116 506.557 9.94425 507.336 10.1495C508.115 10.3547 508.893 10.6831 509.713 11.1756C510.533 11.6681 511.188 12.2838 511.762 12.9816C512.336 13.7204 512.787 14.5413 513.074 15.4443C513.443 16.3473 513.606 17.3734 513.606 18.4406ZM510.574 18.6869C510.574 17.3734 510.328 16.2652 509.795 15.3212C509.262 14.4182 508.647 13.7204 507.91 13.2689C507.172 12.8174 506.393 12.5302 505.574 12.407C504.754 12.2839 504.016 12.2428 503.279 12.2428H498.934V25.5413H503.074C504.426 25.5413 505.533 25.3771 506.434 25.0488C507.336 24.7204 508.074 24.2279 508.688 23.6532C509.303 23.0376 509.754 22.3398 510.082 21.4779C510.41 20.6159 510.574 19.713 510.574 18.6869ZM632.254 24.5973C632.254 27.019 631.967 29.2353 631.434 31.2055C630.902 33.1756 630.041 34.8585 628.934 36.254C627.828 37.6496 626.393 38.7167 624.713 39.4556C623.033 40.1945 621.025 40.6049 618.77 40.6049C616.516 40.6049 614.549 40.2355 612.951 39.5377C611.311 38.8398 610 37.8137 608.934 36.4592C607.91 35.1458 607.131 33.504 606.639 31.6159C606.147 29.6868 605.902 27.5525 605.902 25.1308C605.902 22.7502 606.188 20.5748 606.721 18.6047C607.254 16.6756 608.115 14.9928 609.221 13.6383C610.328 12.2428 611.762 11.2167 613.443 10.4368C615.123 9.69802 617.131 9.28757 619.385 9.28757C621.598 9.28757 623.525 9.65702 625.123 10.3548C626.721 11.0525 628.074 12.0786 629.139 13.3921C630.205 14.7055 630.984 16.3063 631.475 18.1943C632.008 20.0824 632.254 22.2167 632.254 24.5973ZM629.221 24.8436C629.221 23.0376 629.057 21.3547 628.729 19.7539C628.402 18.1942 627.828 16.7987 627.049 15.6495C626.27 14.5002 625.246 13.5563 623.934 12.8996C622.664 12.2428 621.065 11.9145 619.139 11.9145C617.254 11.9145 615.656 12.2429 614.344 12.9406C613.033 13.6384 612.008 14.5823 611.188 15.7726C610.369 16.9629 609.795 18.3174 609.426 19.8771C609.057 21.4368 608.893 23.1197 608.893 24.8436C608.893 26.6906 609.057 28.4144 609.385 30.0151C609.713 31.6159 610.246 33.0115 611.025 34.1607C611.803 35.351 612.828 36.254 614.098 36.9107C615.41 37.5675 617.008 37.8958 618.934 37.8958C620.861 37.8958 622.459 37.5263 623.77 36.8286C625.082 36.1308 626.147 35.1458 626.926 33.9555C627.746 32.7652 628.279 31.3697 628.647 29.81C629.057 28.2503 629.221 26.6085 629.221 24.8436ZM622.008 1.16067C622.172 0.996486 622.336 0.832406 622.459 0.750316C622.623 0.668227 622.787 0.586022 622.951 0.503933C623.115 0.462888 623.32 0.421851 623.565 0.380807C623.77 0.380807 624.016 0.339844 624.303 0.339844C624.631 0.339844 624.918 0.380843 625.123 0.421888C625.328 0.462933 625.451 0.5451 625.574 0.62719C625.656 0.70928 625.697 0.791271 625.656 0.914405C625.615 1.03754 625.574 1.16066 625.451 1.2838L620.082 6.45548C619.918 6.61966 619.795 6.74276 619.672 6.82484C619.549 6.90693 619.426 6.98911 619.262 7.03015C619.139 7.0712 618.975 7.1122 618.811 7.1122C618.648 7.1122 618.443 7.15329 618.197 7.15329C617.91 7.15329 617.705 7.15324 617.582 7.1122C617.418 7.07116 617.336 7.03007 617.295 6.94798C617.254 6.86589 617.254 6.7838 617.254 6.66067C617.295 6.53753 617.377 6.4144 617.5 6.29126L622.008 1.16067ZM745.574 39.7019C745.574 39.8251 745.574 39.9071 745.533 39.9892C745.492 40.0713 745.41 40.1124 745.287 40.1945C745.164 40.2355 745.041 40.2765 744.836 40.3176C744.631 40.3586 744.385 40.3586 744.098 40.3586C743.852 40.3586 743.606 40.3586 743.443 40.3176C743.238 40.2765 743.115 40.2355 742.992 40.1534C742.869 40.0713 742.746 39.9892 742.664 39.8661C742.582 39.743 742.5 39.5788 742.459 39.4146L739.59 31.9853C739.262 31.1644 738.893 30.3436 738.525 29.6048C738.156 28.866 737.705 28.2093 737.172 27.6757C736.639 27.1421 735.984 26.6906 735.246 26.4033C734.508 26.0749 733.607 25.9107 732.541 25.9107H729.385V39.7019C729.385 39.784 729.344 39.8661 729.303 39.9482C729.262 40.0303 729.18 40.1124 729.057 40.1124C728.934 40.1534 728.811 40.1945 728.606 40.2355C728.402 40.2765 728.197 40.2761 727.91 40.2761C727.664 40.2761 727.418 40.2765 727.213 40.2355C727.008 40.1945 726.885 40.1534 726.762 40.1124C726.639 40.0713 726.598 39.9892 726.516 39.9482C726.475 39.8661 726.434 39.784 726.434 39.7019V11.1346C726.434 10.56 726.598 10.1906 726.885 9.98537C727.172 9.78015 727.459 9.65698 727.746 9.65698H733.484C734.221 9.65698 734.877 9.65702 735.369 9.69806C735.861 9.73911 736.311 9.78019 736.721 9.86228C737.869 10.0675 738.893 10.3958 739.754 10.8473C740.615 11.2988 741.352 11.8734 741.885 12.5302C742.459 13.1869 742.869 13.9667 743.156 14.7876C743.443 15.6085 743.565 16.5525 743.565 17.4965C743.565 18.4816 743.402 19.3846 743.156 20.2055C742.869 20.9853 742.5 21.6831 741.967 22.2988C741.434 22.9145 740.82 23.448 740.123 23.8584C739.385 24.3099 738.606 24.6794 737.746 24.9667C738.238 25.213 738.729 25.5003 739.139 25.8286C739.549 26.157 739.959 26.6085 740.287 27.101C740.656 27.5935 740.984 28.1682 741.311 28.7838C741.639 29.4406 741.926 30.1383 742.254 30.9181L745.123 38.06C745.328 38.5936 745.451 39.004 745.533 39.2094C745.533 39.4556 745.574 39.6198 745.574 39.7019ZM740.492 17.8659C740.492 16.5525 740.205 15.4443 739.631 14.5413C739.057 13.6383 738.074 12.9816 736.721 12.6122C736.27 12.4891 735.779 12.4069 735.246 12.3248C734.713 12.2838 734.016 12.2428 733.156 12.2428H729.385V23.4481H733.77C734.959 23.4481 735.943 23.3249 736.803 22.9965C737.664 22.7092 738.361 22.2987 738.893 21.8062C739.467 21.3137 739.877 20.698 740.123 20.0413C740.369 19.3846 740.492 18.6458 740.492 17.8659ZM842.213 39.743C842.213 39.8251 842.172 39.9071 842.131 39.9892C842.09 40.0713 842.008 40.1534 841.885 40.1534C841.762 40.1945 841.639 40.2351 841.434 40.2761C841.229 40.3172 841.025 40.3176 840.738 40.3176C840.492 40.3176 840.246 40.3172 840.041 40.2761C839.836 40.2351 839.713 40.1945 839.59 40.1534C839.467 40.1124 839.385 40.0303 839.344 39.9892C839.303 39.9071 839.262 39.8251 839.262 39.743V10.1495C839.262 10.0674 839.303 9.98529 839.344 9.9032C839.385 9.82111 839.467 9.73902 839.59 9.73902C839.713 9.69798 839.836 9.65694 840.041 9.61589C840.205 9.57485 840.451 9.57493 840.697 9.57493C840.984 9.57493 841.229 9.57485 841.393 9.61589C841.598 9.65694 841.721 9.69798 841.844 9.73902C841.967 9.78007 842.049 9.86216 842.09 9.9032C842.131 9.98529 842.172 10.0674 842.172 10.1495V39.743H842.213ZM962.787 24.5973C962.787 27.019 962.5 29.2353 961.967 31.2055C961.434 33.1756 960.574 34.8585 959.467 36.254C958.361 37.6496 956.926 38.7167 955.246 39.4556C953.566 40.1945 951.557 40.6049 949.303 40.6049C947.049 40.6049 945.082 40.2355 943.483 39.5377C941.844 38.8398 940.533 37.8137 939.467 36.4592C938.443 35.1458 937.664 33.504 937.172 31.6159C936.68 29.6868 936.434 27.5525 936.434 25.1308C936.434 22.7502 936.721 20.5748 937.254 18.6047C937.787 16.6756 938.648 14.9928 939.754 13.6383C940.861 12.2428 942.295 11.2167 943.975 10.4368C945.656 9.69802 947.664 9.28757 949.918 9.28757C952.131 9.28757 954.057 9.65702 955.656 10.3548C957.254 11.0525 958.606 12.0786 959.672 13.3921C960.738 14.7055 961.516 16.3063 962.008 18.1943C962.541 20.0824 962.787 22.2167 962.787 24.5973ZM959.754 24.8436C959.754 23.0376 959.59 21.3547 959.262 19.7539C958.934 18.1942 958.361 16.7987 957.582 15.6495C956.803 14.5002 955.779 13.5563 954.467 12.8996C953.197 12.2428 951.598 11.9145 949.672 11.9145C947.787 11.9145 946.188 12.2429 944.877 12.9406C943.566 13.6384 942.541 14.5823 941.721 15.7726C940.902 16.9629 940.328 18.3174 939.959 19.8771C939.59 21.4368 939.426 23.1197 939.426 24.8436C939.426 26.6906 939.59 28.4144 939.918 30.0151C940.246 31.6159 940.779 33.0115 941.557 34.1607C942.336 35.351 943.361 36.254 944.631 36.9107C945.943 37.5675 947.541 37.8958 949.467 37.8958C951.393 37.8958 952.992 37.5263 954.303 36.8286C955.615 36.1308 956.68 35.1458 957.459 33.9555C958.279 32.7652 958.852 31.3697 959.18 29.81C959.59 28.2503 959.754 26.6085 959.754 24.8436Z"
        fill="#BCAB78" />
    <path
        d="M70.0413 137.43C60.0004 195.303 76.5987 256.993 81.7626 266.064C-31.598 254.038 6.55777 105.168 9.2217 71.4296C56.3938 84.8101 101.025 153.396 105.369 203.594C106.107 152.616 154.959 85.6721 203.484 70.0751C219.427 202.444 209.55 253.381 127.459 265.982C140.123 238.4 140.328 168.459 140.328 137.757"
        stroke="#BCAB78" stroke-width="1.4173" stroke-miterlimit="22.9256" stroke-linecap="round"
        stroke-linejoin="round" />
    <path
        d="M73.7295 123.433C77.6229 94.209 88.1147 67.0373 105.451 41.959C122.336 67.2836 132.664 94.5373 137.049 123.556"
        stroke="#BCAB78" stroke-width="1.4173" stroke-miterlimit="22.9256" stroke-linecap="round"
        stroke-linejoin="round" />
</svg>    