<svg width="80" height="78" viewBox="0 0 80 78" fill="none" xmlns="http://www.w3.org/2000/svg">
    <mask id="mask0_10_1934" style="mask-type:luminance" maskUnits="userSpaceOnUse" x="15" y="0"
        width="49" height="36">
        <path d="M15.6667 0.0991211H63.6667V35.8335H15.6667V0.0991211Z" fill="white" />
    </mask>
    <g mask="url(#mask0_10_1934)">
        <path
            d="M58.1198 19.2813L43.3854 34.1354C41.4948 36.0417 38.4323 36.0417 36.5417 34.1354L21.8073 19.2813C20.6719 18.1406 15.9062 18.5365 17.0365 17.3854L32.776 4.07812C36.7448 0.0729166 43.1823 0.0729166 47.151 4.07812L62.776 17C63.9062 18.1458 59.2604 18.1354 58.125 19.2813H58.1198Z"
            fill="#00B2B0" />
    </g>
    <path
        d="M18.4896 21.3127L33.224 36.1616C35.1198 38.0731 35.1198 41.1616 33.224 43.0627L18.4896 57.9168C17.3594 59.0575 15.5208 59.0575 14.3802 57.9168L3.40625 46.8543C-0.5625 42.8543 -0.5625 36.3647 3.40625 32.3647L14.3802 21.3022C15.5156 20.1616 17.3542 20.1616 18.4896 21.3022V21.3127Z"
        fill="#00B2B0" />
    <path
        d="M65.1094 58.1668L76.0833 47.1043C80.2448 42.9116 80.2448 36.1147 76.0833 31.922L65.4531 21.2085C64.3229 20.0679 62.4844 20.0679 61.3438 21.2085L46.6094 36.0627C44.7187 37.9689 44.7187 41.0575 46.6094 42.9585L61.6875 58.1616C62.6354 59.1095 64.1667 59.1095 65.1094 58.1616V58.1668Z"
        fill="#00B2B0" />
    <path
        d="M21.5625 59.7135L36.3021 44.8594C38.1927 42.9531 41.2552 42.9531 43.1458 44.8594L57.8802 59.7135C59.0104 60.8542 63.7813 60.4583 62.6458 61.6042L46.9063 74.9167C42.9375 78.9167 36.5 78.9167 32.5313 74.9167L16.9063 61.9896C15.776 60.849 20.4219 60.8594 21.5573 59.7135H21.5625Z"
        fill="#00B2B0" />
</svg>
    