<svg width="32" height="36" viewBox="0 0 32 36" fill="none" xmlns="http://www.w3.org/2000/svg">
    <mask id="mask0_10_28" style="mask-type:luminance" maskUnits="userSpaceOnUse" x="0" y="0"
        width="32" height="36">
        <path d="M0.09375 0.359375H31.0625V35.3229H0.09375V0.359375Z" fill="white" />
    </mask>
    <g mask="url(#mask0_10_28)">
        <path fill-rule="evenodd" clip-rule="evenodd"
            d="M12.5625 3.79153C11.7552 4.63007 11.1406 5.98945 11.1406 8.00508V10.3124H19.9792V8.00508C19.9792 4.35924 17.6615 2.63007 15.5313 2.57799C14.4427 2.55195 13.3698 2.94778 12.5625 3.79153ZM22.1927 10.3124V8.00508C22.1927 3.22383 18.9844 0.452992 15.5885 0.369658C13.9167 0.327992 12.2292 0.942575 10.9635 2.26028C9.69792 3.5832 8.93229 5.52591 8.93229 8.00508V10.3124H0.09375V30.1978C0.09375 33.2499 2.56771 35.7238 5.61979 35.7238H25.5052C28.5573 35.7238 31.0313 33.2499 31.0313 30.1978V10.3124H22.1927ZM19.9792 12.5207V13.6249H22.1927V12.5207H28.8177V30.1978C28.8177 32.0311 27.3385 33.5103 25.5052 33.5103H5.61979C3.78646 33.5103 2.30208 32.0311 2.30208 30.1978V12.5207H8.93229V13.6249H11.1406V12.5207H19.9792Z"
            fill="#69443C" />
    </g>
</svg>
    