<svg width="34" height="36" viewBox="0 0 34 36" fill="none" xmlns="http://www.w3.org/2000/svg">
    <mask id="mask0_10_23" style="mask-type:luminance" maskUnits="userSpaceOnUse" x="0" y="0"
        width="34" height="36">
        <path d="M0.588623 0.359375H33.5522V35.3229H0.588623V0.359375Z" fill="white" />
    </mask>
    <g mask="url(#mask0_10_23)">
        <path
            d="M33.099 32.5365V32.1771C33.099 29.9844 32.672 27.8542 31.823 25.849C31.0053 23.9115 29.8334 22.1771 28.3386 20.6823C26.849 19.1927 25.1095 18.0208 23.172 17.1979C23.047 17.1458 22.9167 17.0937 22.7865 17.0417C23.0313 16.8437 23.2657 16.6302 23.4897 16.4063C24.3542 15.5469 25.0313 14.5417 25.5053 13.4219C25.9949 12.2604 26.2449 11.026 26.2449 9.76042C26.2449 8.48958 25.9949 7.26042 25.5053 6.09896C25.0313 4.97917 24.3542 3.97396 23.4897 3.11458C22.6303 2.25 21.6251 1.57292 20.5053 1.09896C19.3438 0.609374 18.1147 0.359375 16.8438 0.359375C15.5782 0.359375 14.3438 0.609374 13.1876 1.09896C12.0678 1.57292 11.0626 2.25 10.198 3.11458C9.33341 3.97396 8.65633 4.97917 8.18237 6.09896C7.69279 7.26042 7.44279 8.48958 7.44279 9.76042C7.44279 11.026 7.69279 12.2604 8.18237 13.4219C8.65633 14.5417 9.33341 15.5469 10.198 16.4063C10.422 16.6302 10.6563 16.8437 10.9011 17.0417C10.7709 17.0937 10.6459 17.1458 10.5157 17.1979C8.57821 18.0208 6.84383 19.1927 5.34904 20.6823C3.85946 22.1771 2.68758 23.9115 1.86466 25.849C1.01571 27.8542 0.588623 29.9844 0.588623 32.1771V32.5365C0.588623 34.2031 1.86987 35.5781 3.50008 35.7292L30.4115 35.7031L30.422 35.6979C30.7032 35.6719 30.974 35.5885 31.2188 35.4531C32.3282 34.9479 33.099 33.8333 33.099 32.5365ZM9.91675 12.6875C9.52612 11.7604 9.323 10.776 9.323 9.76042C9.323 8.74479 9.52612 7.76042 9.91675 6.83333C10.297 5.9375 10.8386 5.13542 11.5261 4.44271C12.2188 3.75521 13.0209 3.20833 13.9167 2.83333C14.8438 2.4375 15.8282 2.23958 16.8438 2.23958C17.8595 2.23958 18.8438 2.4375 19.7709 2.83333C20.6667 3.20833 21.4688 3.75521 22.1615 4.44271C22.8542 5.13542 23.3959 5.9375 23.7709 6.83333C24.1667 7.76042 24.3647 8.74479 24.3647 9.76042C24.3647 10.776 24.1667 11.7604 23.7709 12.6875C23.3959 13.5833 22.8542 14.3854 22.1615 15.0781C21.4688 15.7656 20.6667 16.3125 19.7709 16.6875C18.8438 17.0833 17.8595 17.2813 16.8438 17.2813C15.8282 17.2813 14.8438 17.0833 13.9167 16.6875C13.0209 16.3125 12.2188 15.7656 11.5261 15.0781C10.8386 14.3854 10.297 13.5833 9.91675 12.6875ZM31.2188 32.5365C31.2188 33.2656 30.6251 33.8646 29.8959 33.8646H3.79696C3.06258 33.8646 2.46883 33.2656 2.46883 32.5365V32.1771C2.46883 30.2396 2.84904 28.3542 3.59904 26.5833C4.323 24.8698 5.35946 23.3333 6.67716 22.0104C8.00008 20.6927 9.53654 19.6563 11.2501 18.9323C11.6251 18.7708 12.0157 18.6302 12.4011 18.5C12.5365 18.4583 12.672 18.4167 12.8074 18.375C12.8595 18.3594 12.9063 18.3438 12.9532 18.3177C13.0313 18.3542 13.1095 18.3906 13.1876 18.4219C14.3438 18.9115 15.5782 19.1615 16.8438 19.1615C18.1147 19.1615 19.3438 18.9115 20.5053 18.4219C20.5834 18.3906 20.6563 18.3542 20.7345 18.3177C20.7813 18.3438 20.8282 18.3594 20.8803 18.375C21.4063 18.5313 21.9324 18.7187 22.4428 18.9323C24.1511 19.6563 25.6876 20.6927 27.0105 22.0104C28.3282 23.3333 29.3647 24.8698 30.0886 26.5833C30.8386 28.3542 31.2188 30.2396 31.2188 32.1771V32.5365Z"
            fill="#69443C" />
    </g>
</svg>
    